<svg width="600" height="600" viewBox="0 0 600 600" fill="none" xmlns="http://www.w3.org/2000/svg">
<rect width="600" height="600" rx="66" fill="#400772"/>
<path d="M104 294.001C104 278.537 116.536 266.001 132 266.001C147.464 266.001 160 278.537 160 294.001L160 378.001C160 408.929 185.072 434.001 216 434.001C246.928 434.001 272 408.929 272 378.001L272 210.001C272 148.145 322.144 98.0009 384 98.0009C445.856 98.0009 496 148.145 496 210.001L496 294.001C496 309.465 483.464 322.001 468 322.001C452.536 322.001 440 309.465 440 294.001L440 210.001C440 179.073 414.928 154.001 384 154.001C353.072 154.001 328 179.073 328 210.001L328 378.001C328 439.857 277.856 490.001 216 490.001C154.144 490.001 104 439.857 104 378.001L104 294.001Z" fill="#FFF9E8"/>
<path d="M159.471 166.416C159.471 181.734 147.054 194.152 131.736 194.152C116.418 194.152 104 181.734 104 166.416C104 151.098 116.418 138.68 131.736 138.68C147.054 138.68 159.471 151.098 159.471 166.416Z" fill="#D699FF"/>
<path d="M496 421.586C496 436.904 483.582 449.322 468.264 449.322C452.946 449.322 440.528 436.904 440.528 421.586C440.528 406.268 452.946 393.85 468.264 393.85C483.582 393.85 496 406.268 496 421.586Z" fill="#FFD335"/>
</svg>
